<svg id="Layer_1" data-name="Layer 1" xmlns="http://www.w3.org/2000/svg" viewBox="0 0 115.68 43.51"><defs><style>.cls-1{fill:#221f1f;}</style></defs><path class="cls-1" d="M153.4,121v-2h-.72v-.41h1.92V119h-.71v2Z" transform="translate(-42.06 -77.95)"/><path class="cls-1" d="M154.91,121v-2.41h.73l.44,1.65.43-1.65h.73V121h-.45v-1.9l-.48,1.9h-.47l-.48-1.9V121Z" transform="translate(-42.06 -77.95)"/><path class="cls-1" d="M85.68,99.7a14.57,14.57,0,0,1,9.41-13.62A21.68,21.68,0,0,0,78.15,78H63.81a21.75,21.75,0,0,0,0,43.5H78.15a21.7,21.7,0,0,0,16.94-8.12A14.58,14.58,0,0,1,85.68,99.7ZM66.78,85.58a2.21,2.21,0,1,1-2.24,2.21A2.22,2.22,0,0,1,66.78,85.58Zm7.41,20.76h0a9.19,9.19,0,0,1-6,6.11A9,9,0,0,1,57,106.36h0a9.6,9.6,0,0,1-.35-4.22,9.33,9.33,0,0,1,5-7h0a1.17,1.17,0,0,1,.74-.12,1.31,1.31,0,0,1,1.08,1.49,1.28,1.28,0,0,1-.79,1l0,0a6.63,6.63,0,0,0-3.35,4.93,6.89,6.89,0,0,0,.22,2.91h0a6.59,6.59,0,0,0,1.18,2.26l.08.1L61,108l.28.28.06.07a7,7,0,0,0,3.52,1.7h0a6,6,0,0,0,2.65-.22,6.5,6.5,0,0,0,4.22-4.14l0,0a1.29,1.29,0,0,1,.87-1,1.29,1.29,0,0,1,1.57,1.65Zm8.54,1.51-2.55,1.42-.06,0-.07,0a1.07,1.07,0,0,1-.39.07h0a1.46,1.46,0,0,1-.22,0,1.23,1.23,0,0,1-.73-.5l-3.55-5.36H67a1.69,1.69,0,0,1-.32,0,1.62,1.62,0,0,1-1.45-1.58V92.72a1.58,1.58,0,0,1,3.16,0v2.9h4.88a1.4,1.4,0,0,1,0,2.79H68.36v2.24h7a1.33,1.33,0,0,1,1.14.69L80.27,107l1.48-.83a1,1,0,0,1,1.35.37A1,1,0,0,1,82.73,107.85Z" transform="translate(-42.06 -77.95)"/><path class="cls-1" d="M106.18,96.94l-11.61-6c0,2.48.28,4.09,2,5l5.83,3Z" transform="translate(-42.06 -77.95)"/><path class="cls-1" d="M107.69,97.73l-3.79,2h0l-7.3,3.8c-1.67.9-2,2.86-2,5L105.11,103c2.33-1.27,2.58-2.82,2.58-5.29Z" transform="translate(-42.06 -77.95)"/><path class="cls-1" d="M124.12,100.82h14.27a.17.17,0,0,0,.16-.18V88.37a.17.17,0,0,0-.16-.18H124.12a.17.17,0,0,0-.16.18v12.27A.17.17,0,0,0,124.12,100.82Z" transform="translate(-42.06 -77.95)"/><path class="cls-1" d="M136,78H121.65a21.68,21.68,0,0,0-16.78,7.92,14.58,14.58,0,0,1,0,27.67,21.7,21.7,0,0,0,16.78,7.91H136A21.75,21.75,0,0,0,136,78Zm-14.66,7.7a.21.21,0,0,1,.19-.22h19.36a.2.2,0,0,1,.18.22v18.23a.19.19,0,0,1-.18.21H121.52a.2.2,0,0,1-.19-.21Zm20.23,27.11a.25.25,0,0,1-.25.25H121.09a.25.25,0,0,1-.25-.25v-7.38a.25.25,0,0,1,.25-.25h20.22a.25.25,0,0,1,.25.25Z" transform="translate(-42.06 -77.95)"/><path class="cls-1" d="M124.63,109.37h-2a.21.21,0,0,0-.21.21v2a.21.21,0,0,0,.21.21h2a.21.21,0,0,0,.22-.21v-2A.21.21,0,0,0,124.63,109.37Z" transform="translate(-42.06 -77.95)"/><path class="cls-1" d="M86.35,28.27h2a.21.21,0,0,1,.21.21v2a.22.22,0,0,1-.22.22h-2a.22.22,0,0,1-.22-.22v-2A.22.22,0,0,1,86.35,28.27Z"/><path class="cls-1" d="M124.63,108.65h2a.22.22,0,0,0,.22-.22v-2a.22.22,0,0,0-.22-.22h-2a.21.21,0,0,0-.21.22v2A.21.21,0,0,0,124.63,108.65Z" transform="translate(-42.06 -77.95)"/><path class="cls-1" d="M90.14,28.27h2a.21.21,0,0,1,.21.21v2a.22.22,0,0,1-.22.22h-2a.21.21,0,0,1-.21-.21v-2A.22.22,0,0,1,90.14,28.27Z"/><path class="cls-1" d="M93.92,28.27h2a.21.21,0,0,1,.21.21v2a.22.22,0,0,1-.22.22h-2a.21.21,0,0,1-.21-.21v-2A.22.22,0,0,1,93.92,28.27Z"/><path class="cls-1" d="M95.7,31.42h2a.21.21,0,0,1,.21.21v2a.21.21,0,0,1-.21.21h-2a.21.21,0,0,1-.21-.21v-2A.22.22,0,0,1,95.7,31.42Z"/><path class="cls-1" d="M132.19,109.37h-2a.21.21,0,0,0-.22.21v2a.21.21,0,0,0,.22.21h2a.21.21,0,0,0,.22-.21v-2A.21.21,0,0,0,132.19,109.37Z" transform="translate(-42.06 -77.95)"/><path class="cls-1" d="M128.41,109.37h-2a.21.21,0,0,0-.21.21v2a.21.21,0,0,0,.21.21h2a.21.21,0,0,0,.22-.21v-2A.21.21,0,0,0,128.41,109.37Z" transform="translate(-42.06 -77.95)"/><path class="cls-1" d="M91.92,31.42h2a.21.21,0,0,1,.21.21v2a.21.21,0,0,1-.21.21h-2a.22.22,0,0,1-.22-.22v-2A.22.22,0,0,1,91.92,31.42Z"/></svg>